<?xml version="1.0" encoding="UTF-8"?>
<svg id="_레이어_2" data-name="레이어 2" xmlns="http://www.w3.org/2000/svg" viewBox="0 0 120.58 45.83">
  <defs>
    <style>
      .cls-1 {
        fill: #009893;
      }
    </style>
  </defs>
  <g id="_레이어_2-2" data-name="레이어 2">
    <g>
      <path class="cls-1" d="m48.24,23.26c.84-9.17-5.45-19.38-9.62-19.38-2.62,0-4.5,5.83-8.58,5.83-1.96-4.68-4.4-9.71-6.88-9.71-3.62,0-6.3,10.38-10.02,10.38-4.01,0-3.9-7.7-7.75-3.42C-1.26,14.36-.68,23.81,1.44,29.97c2.25,6.53,9.4,15.86,23.11,15.86,11.19,0,18.58-7.96,21.12-13.08,0,0,0-.01-.01,0-4.43,4.87-11.94,9.4-20.78,9.4-4.14,0-10.63-1.21-11.9-5.97,0,0-4.92-2.19-6.29-4.73,0,0-.04-1.01.61-1.66.21.36,2.58,4.19,9.39,6.52,8.74,2.99,17.53.97,19.89-.52,0,0,0,0,0,0-3.68,1.23-15.57,1.61-21.08-1.64-1.72-1.02-2.12-2.32.89-2.6,1.8-.17,4.78.05,9.33.98,19.52,4.01,22.27-5.37,22.03-6.05-.25-.69-3.12-3.03-8.02-2.27-8.97,1.59-16.63,7.9-24.89,2.71-5.01-3.15-5.02-10.32-7.14-10.93,0,0,0,0,0,0,1.21-.66,2.38-2.48,4.23-2.48,1.14,0,1.72.38,3.06,1.92,2.85,3.26,6.12,6.12,11.44,6.77,4.41.48,8.93-1.74,4.34-10.7,0,0,0-.02,0,0,3.38,2.97,5.97,7.48,3.79,10.5,0,0,8.63-3.22,13.68,1.28Zm-5.11,4.48c.54.01.96.36.95.77-.02.41-.47.74-1.01.73-.54,0-.96-.36-.95-.77.01-.41.46-.74,1-.73ZM10.89,16.03c-.01.43.33.78.75.79.42,0,.78-.33.79-.75.01-.43-.32-.78-.75-.79-.43-.01-.78.33-.79.75Z"/>
      <g>
        <path class="cls-1" d="m87.37,15.96c0-.83-.42-1.25-1.27-1.25h-6.75v1.71h4.37c.39,0,.58.22.58.61,0,2.64-1.37,6.07-5.74,9.43l.86,1.47c1.67-.95,3.49-2.51,4.77-4,.85,1.08,2.38,2.85,3.89,3.88l1.04-1.32s-2.35-2.69-3.36-4.94c.88-1.51,1.6-4.1,1.6-5.59Z"/>
        <path class="cls-1" d="m91.83,13.72l-2.54-.04c-.15,0-.25.06-.28.22-.03.13.03.27.17.31.49.13.74.4.74.8v4.77h-2.57v1.72h2.57v10.65h1.27c.99,0,1.42-.48,1.42-1.77v-15.88c0-.52-.26-.78-.79-.78Z"/>
        <path class="cls-1" d="m95.88,13.72l-2.54-.04c-.15,0-.25.06-.28.22-.03.13.03.27.17.31.49.13.74.4.74.8v17.95h1.27c.99,0,1.42-.48,1.42-1.77V14.5c0-.52-.26-.78-.78-.78Z"/>
        <path class="cls-1" d="m116.97,21.7c.36-1.71.55-3.93.55-5.83,0-1.05-.49-1.43-1.57-1.43h-12.65v1.72h10.45c.71,0,.82.3.8.77-.03.84-.22,3.71-.47,4.77h-13.11v1.7h8.69s0,5.27,0,5.27h1.38c.95,0,1.54-.55,1.54-1.62v-3.66h8v-1.7h-3.62Z"/>
        <path class="cls-1" d="m69.63,14.25c.54.14.81.44.81.87v13.05h1.38c1.08,0,1.54-.53,1.54-1.93v-11.67c0-.57-.29-.85-.85-.85l-2.76-.05c-.16,0-.27.06-.31.23-.03.14.04.29.19.34Z"/>
        <path class="cls-1" d="m63.61,30.53v-3.73c0-.57-.29-.85-.86-.85l-2.76-.05c-.16,0-.27.06-.31.23-.03.14.04.29.18.34.54.14.8.44.8.87v3.58c0,1.18.68,1.85,1.91,1.85h11.29v-1.7h-9.7c-.35,0-.57-.2-.57-.54Z"/>
        <path class="cls-1" d="m106.82,30.53v-3.73c0-.57-.29-.85-.85-.85l-2.76-.05c-.16,0-.27.06-.31.23-.03.14.04.29.18.34.54.14.8.44.8.87v3.58c0,1.18.68,1.85,1.91,1.85h12.31v-1.7h-10.72c-.34,0-.57-.2-.57-.54Z"/>
        <path class="cls-1" d="m67.27,19.12c0-2.9-2.16-5.03-5.39-5.03s-5.38,2.21-5.38,5.03,1.92,5.03,5.38,5.03c3.01,0,5.39-1.98,5.39-5.03Zm-7.83,0c0-1.86.91-3.31,2.44-3.31s2.45,1.4,2.45,3.31c0,2.01-1.08,3.31-2.45,3.31-1.57,0-2.44-1.5-2.44-3.31Z"/>
      </g>
    </g>
  </g>
</svg>