<?xml version="1.0" encoding="utf-8"?>
<!-- Generator: Adobe Illustrator 22.0.1, SVG Export Plug-In . SVG Version: 6.00 Build 0)  -->
<svg version="1.1" id="레이어_1" xmlns="http://www.w3.org/2000/svg" xmlns:xlink="http://www.w3.org/1999/xlink" x="0px"
	 y="0px" viewBox="0 0 597 197.3" style="enable-background:new 0 0 597 197.3;" xml:space="preserve">
<style type="text/css">
	.st0{fill:#264FA1;}
	.st1{fill:#2C85C6;}
	.st2{fill:#221E1F;}
	.st3{fill:#32366A;}
	.st4{fill:#6BBCE9;}
	.st5{fill:#6C6E70;}
	.st6{fill:#29664E;}
	.st7{fill:#F0F0F0;stroke:#FFFFFF;stroke-miterlimit:10;}
</style>
<path class="st0" d="M70.9,98.4c-17.1,14.3-36,32.1-55.2,53.8c-4.5-5.9-8.1-12.4-10.7-19.3C5.4,132.4,37.8,115.5,70.9,98.4"/>
<path class="st1" d="M134.2,53.9c-11.9,6.6-35.1,20.8-63.3,44.5c-33.1,17.1-65.6,34-65.9,34.4c6.9-8.8,13.9-16.9,20.8-24.4
	L134.2,53.9z"/>
<path class="st2" d="M70.9,98.4c34.6-17.9,69.9-36.1,69.9-36.1c-14.6,9.6-51.3,35.2-92.5,73.3c-18.7,9.5-32.5,16.5-32.6,16.6
	C35,130.5,53.9,112.7,70.9,98.4"/>
<path class="st1" d="M1.5,120.7c-2-10-2-20.6,0.2-31.1l51.1-22.4C36.4,80.8,18.7,98.3,1.5,120.7"/>
<path class="st3" d="M113.1,115.7c-19.7,16.4-43.5,36.8-68.7,59.7c-8.1-3.8-15.4-9-21.6-15.1C22.8,160.3,52.4,148,113.1,115.7"/>
<path class="st2" d="M44.4,175.4L44.4,175.4c25.2-22.9,49.1-43.3,68.7-59.7c12.1-6.5,25.5-13.7,40.2-21.8
	c-16,13.9-44.4,38.4-85.5,73.2L44.4,175.4z"/>
<path class="st0" d="M22.8,160.3c8.6-8.7,17.1-17,25.5-24.7c37.9-19.2,96.2-48.6,103-50.9c-9.2,7.3-22.3,17.9-38.1,31
	C52.4,148,22.8,160.3,22.8,160.3"/>
<path class="st1" d="M67.8,167.1c41.1-34.9,69.5-59.3,85.5-73.2c1.7,10.8,1.1,22.2-2.2,33.4c-1.2,4-2.6,7.8-4.3,11.4
	c-0.2,0.2-0.4,0.3-0.6,0.5L67.8,167.1z"/>
<path class="st3" d="M53.6,179c4.9-4.1,9.6-8.1,14.1-12l78.3-27.9c-13.6,12-30.2,25.9-50.1,41.2c-12.9,3.3-26.8,3.3-40.5-0.8
	C54.9,179.4,54.3,179.2,53.6,179"/>
<path class="st2" d="M25.9,108.4L1.5,120.7c17.2-22.3,34.9-39.9,51.3-53.6l63.4-27.8C96.5,49.1,61.7,69.9,25.9,108.4"/>
<path class="st4" d="M25.9,108.4c35.9-38.5,70.6-59.3,90.4-69.2c6.8,4,12.8,9,18,14.7L25.9,108.4z"/>
<path class="st1" d="M140.8,62.3L140.8,62.3c4.6,6.8,8.2,14.4,10.4,22.4c-6.7,2.3-65,31.7-103,51C89.5,97.5,126.2,71.9,140.8,62.3"
	/>
<path class="st4" d="M52.9,67.1L1.8,89.5c0-0.1,0-0.2,0.1-0.3c22.7-29.8,59.3-57.3,80.5-69.1c9.1-0.7,7.1,8.8,16.5,11.6
	c1.6,0.5-1.7,4-7.4,5.7C79.6,45.1,72.3,50.9,52.9,67.1"/>
<path class="st4" d="M106.3,21.1c-2.7-1.3-3.8-4.5-2.5-7.1c1.3-2.7,4.5-3.8,7.1-2.5c2.6,1.3,3.8,4.5,2.5,7.1
	C112.2,21.3,109,22.4,106.3,21.1 M130.7,6.2c0.4-1.3-0.4-2.7-1.7-3.1c-8.7-2.5-17.2-4.5-25.6-1.9C99,2.5,95,5.1,91.4,8.1
	c-6.1-1.4-17.6,4-17.6,4s2,2.9,3.9,5.5c1.1,1.4,2.1,2.8,2.8,3.5c-0.9,1.5-1.7,2.9-2.4,4.3c-0.3,0.7-0.3,1.6,0.1,2.3l4.7,8.4
	c0.3,0.6,0.9,1,1.5,1.2c0.1,0,3.6,0.4,5.4,0.4c0.1,0.5,0.4,1.2,0.6,1.9c1.2,3.4,3.5,8.6,3.5,8.6s10.7-6.9,12.8-12.8
	c4.5-1.4,8.8-3.5,12.3-6.6C125.5,23.2,128.4,14.6,130.7,6.2"/>
<path class="st5" d="M193.2,184l-1.8-5.4c-0.4-1.2-0.7-2.4-1-3.4h-0.1c-0.3,1.1-0.6,2.3-1,3.4l-1.8,5.5H193.2z M187,185.9l-2,5.9
	h-2.5l6.4-18.8h2.9l6.4,18.8h-2.6l-2-5.9H187z"/>
<path class="st5" d="M206.6,182.3c0.5,0.2,1.2,0.2,2,0.2c2.9,0,4.7-1.4,4.7-4c0-2.5-1.8-3.7-4.4-3.7c-1.1,0-1.9,0.1-2.3,0.2V182.3z
	 M204.2,173.2c1.2-0.2,2.7-0.4,4.7-0.4c2.4,0,4.2,0.6,5.3,1.6c1,0.9,1.7,2.3,1.7,3.9c0,1.7-0.5,3.1-1.5,4c-1.3,1.4-3.4,2.1-5.7,2.1
	c-0.7,0-1.4,0-2-0.2v7.5h-2.4V173.2z"/>
<path class="st5" d="M224,184.9c-2.7-0.1-5.7,0.4-5.7,3c0,1.6,1.1,2.4,2.3,2.4c1.8,0,2.9-1.1,3.3-2.3c0.1-0.3,0.1-0.5,0.1-0.8V184.9
	z M224.3,191.8l-0.2-1.7h-0.1c-0.8,1.1-2.2,2-4.1,2c-2.7,0-4.1-1.9-4.1-3.9c0-3.3,2.9-5,8.1-5v-0.3c0-1.1-0.3-3.1-3.1-3.1
	c-1.3,0-2.6,0.4-3.5,1l-0.6-1.6c1.1-0.7,2.7-1.2,4.4-1.2c4.1,0,5.1,2.8,5.1,5.5v5.1c0,1.2,0.1,2.3,0.2,3.2H224.3z"/>
<path class="st5" d="M228.9,182.5c0-1.6,0-3-0.1-4.2h2.2l0.1,2.7h0.1c0.6-1.8,2.1-3,3.7-3c0.3,0,0.5,0,0.7,0.1v2.3
	c-0.3-0.1-0.5-0.1-0.8-0.1c-1.7,0-2.9,1.3-3.3,3.1c-0.1,0.3-0.1,0.7-0.1,1.2v7.2h-2.4V182.5z"/>
<path class="st5" d="M240.3,174.4v3.9h3.5v1.9h-3.5v7.3c0,1.7,0.5,2.6,1.8,2.6c0.6,0,1.1-0.1,1.4-0.2l0.1,1.8
	c-0.5,0.2-1.2,0.3-2.2,0.3c-1.2,0-2.1-0.4-2.6-1.1c-0.7-0.7-1-1.9-1-3.5v-7.4h-2.1v-1.9h2.1V175L240.3,174.4z"/>
<path class="st5" d="M245.2,181.9c0-1.4,0-2.5-0.1-3.7h2.2l0.1,2.2h0.1c0.7-1.3,2.2-2.6,4.5-2.6c1.9,0,4.8,1.1,4.8,5.7v8.1h-2.5V184
	c0-2.2-0.8-4-3.1-4c-1.6,0-2.9,1.1-3.3,2.5c-0.1,0.3-0.2,0.7-0.2,1.2v8.1h-2.5V181.9z"/>
<path class="st5" d="M267.9,183.7c0-1.5-0.6-4-3.4-4c-2.5,0-3.6,2.3-3.8,4H267.9z M260.7,185.5c0.1,3.3,2.2,4.7,4.6,4.7
	c1.8,0,2.8-0.3,3.7-0.7l0.4,1.8c-0.9,0.4-2.3,0.8-4.5,0.8c-4.2,0-6.6-2.7-6.6-6.8c0-4.1,2.4-7.3,6.3-7.3c4.4,0,5.6,3.9,5.6,6.4
	c0,0.5-0.1,0.9-0.1,1.2H260.7z"/>
<path class="st5" d="M271.9,182.5c0-1.6,0-3-0.1-4.2h2.1l0.1,2.7h0.1c0.6-1.8,2.1-3,3.7-3c0.3,0,0.5,0,0.7,0.1v2.3
	c-0.3-0.1-0.5-0.1-0.9-0.1c-1.7,0-2.9,1.3-3.3,3.1c0,0.3-0.1,0.7-0.1,1.2v7.2h-2.4V182.5z"/>
<path class="st5" d="M285.7,185.1c0,3,1.7,5.2,4.1,5.2c2.3,0,4.1-2.2,4.1-5.3c0-2.3-1.2-5.2-4.1-5.2
	C286.9,179.8,285.7,182.5,285.7,185.1 M296.4,184.9c0,5-3.5,7.2-6.7,7.2c-3.7,0-6.5-2.7-6.5-7c0-4.5,3-7.2,6.7-7.2
	C293.8,178,296.4,180.8,296.4,184.9"/>
<path class="st5" d="M298.4,191.8v-11.6h-1.9v-1.9h1.9v-0.6c0-1.9,0.4-3.6,1.6-4.7c0.9-0.9,2.2-1.3,3.3-1.3c0.9,0,1.6,0.2,2.1,0.4
	l-0.3,1.9c-0.4-0.2-0.9-0.3-1.6-0.3c-2.1,0-2.6,1.8-2.6,3.9v0.7h3.3v1.9h-3.3v11.6H298.4z"/>
<path class="st5" d="M309.2,188.8c1.1,0.7,2.7,1.2,4.3,1.2c2.5,0,3.9-1.3,3.9-3.2c0-1.8-1-2.8-3.5-3.8c-3.1-1.1-5-2.7-5-5.3
	c0-2.9,2.4-5.1,6.1-5.1c1.9,0,3.3,0.5,4.2,0.9l-0.7,2c-0.6-0.3-1.9-0.9-3.6-0.9c-2.6,0-3.5,1.5-3.5,2.8c0,1.8,1.2,2.6,3.7,3.6
	c3.2,1.2,4.8,2.8,4.8,5.5c0,2.9-2.2,5.4-6.6,5.4c-1.8,0-3.8-0.5-4.8-1.2L309.2,188.8z"/>
<path class="st5" d="M324.2,186.3c0,0.4,0,0.7,0.1,1c0.4,1.7,1.9,2.9,3.7,2.9c2.6,0,4.1-2.1,4.1-5.2c0-2.7-1.4-5-4-5
	c-1.7,0-3.2,1.2-3.7,3c-0.1,0.3-0.2,0.7-0.2,1V186.3z M321.8,182.7c0-1.7-0.1-3.1-0.1-4.4h2.2l0.1,2.3h0c1-1.6,2.6-2.6,4.8-2.6
	c3.3,0,5.7,2.8,5.7,6.9c0,4.8-3,7.3-6.1,7.3c-1.8,0-3.3-0.8-4.2-2.1h0v7.4h-2.4V182.7z"/>
<path class="st5" d="M343.4,184.9c-2.7-0.1-5.7,0.4-5.7,3c0,1.6,1.1,2.4,2.3,2.4c1.8,0,2.9-1.1,3.3-2.3c0.1-0.3,0.1-0.5,0.1-0.8
	V184.9z M343.8,191.8l-0.2-1.7h-0.1c-0.8,1.1-2.2,2-4.1,2c-2.7,0-4.1-1.9-4.1-3.9c0-3.3,2.9-5,8.1-5v-0.3c0-1.1-0.3-3.1-3.1-3.1
	c-1.3,0-2.6,0.4-3.5,1l-0.5-1.6c1.1-0.7,2.7-1.2,4.4-1.2c4.1,0,5.1,2.8,5.1,5.5v5.1c0,1.2,0.1,2.3,0.2,3.2H343.8z"/>
<path class="st5" d="M351.2,174.4v3.9h3.5v1.9h-3.5v7.3c0,1.7,0.5,2.6,1.8,2.6c0.6,0,1.1-0.1,1.4-0.2l0.1,1.8
	c-0.5,0.2-1.2,0.3-2.2,0.3c-1.1,0-2.1-0.4-2.7-1.1c-0.7-0.7-0.9-1.9-0.9-3.5v-7.4h-2.1v-1.9h2.1V175L351.2,174.4z"/>
<path class="st5" d="M356.1,178.3h2.5v13.5h-2.5V178.3z M358.8,174.5c0,0.8-0.6,1.5-1.6,1.5c-0.9,0-1.5-0.7-1.5-1.5
	c0-0.8,0.6-1.5,1.5-1.5C358.2,172.9,358.8,173.6,358.8,174.5"/>
<path class="st5" d="M368.4,184.9c-2.7-0.1-5.7,0.4-5.7,3c0,1.6,1.1,2.4,2.3,2.4c1.8,0,2.9-1.1,3.3-2.3c0.1-0.3,0.2-0.5,0.2-0.8
	V184.9z M368.7,191.8l-0.2-1.7h-0.1c-0.7,1.1-2.2,2-4.1,2c-2.7,0-4.1-1.9-4.1-3.9c0-3.3,2.9-5,8.1-5v-0.3c0-1.1-0.3-3.1-3.1-3.1
	c-1.3,0-2.6,0.4-3.5,1l-0.6-1.6c1.1-0.7,2.7-1.2,4.4-1.2c4.1,0,5.1,2.8,5.1,5.5v5.1c0,1.2,0.1,2.3,0.2,3.2H368.7z"/>
<path class="st5" d="M388.6,181.9c0-1.4,0-2.5-0.1-3.7h2.2l0.1,2.2h0.1c0.7-1.3,2.2-2.6,4.5-2.6c1.9,0,4.8,1.1,4.8,5.7v8.1h-2.5V184
	c0-2.2-0.8-4-3.1-4c-1.6,0-2.9,1.1-3.3,2.5c-0.1,0.3-0.2,0.7-0.2,1.2v8.1h-2.5V181.9z"/>
<rect x="373.3" y="172" class="st5" width="2.5" height="19.8"/>
<rect x="383.1" y="173" class="st5" width="2.4" height="18.8"/>
<path class="st5" d="M402.9,191.8v-11.6H401v-1.9h1.9v-0.6c0-1.9,0.4-3.6,1.6-4.7c0.9-0.9,2.1-1.3,3.3-1.3c0.9,0,1.6,0.2,2.1,0.4
	l-0.3,1.9c-0.4-0.2-0.9-0.3-1.6-0.3c-2.1,0-2.6,1.8-2.6,3.9v0.7h3.3v1.9h-3.3v11.6H402.9z"/>
<path class="st5" d="M410.6,185.1c0,3,1.7,5.2,4.1,5.2c2.3,0,4.1-2.2,4.1-5.3c0-2.3-1.1-5.2-4-5.2
	C411.9,179.8,410.6,182.5,410.6,185.1 M421.3,184.9c0,5-3.5,7.2-6.7,7.2c-3.7,0-6.5-2.7-6.5-7c0-4.5,3-7.2,6.7-7.2
	C418.7,178,421.3,180.8,421.3,184.9"/>
<path class="st5" d="M423,182.5c0-1.6,0-3-0.1-4.2h2.2l0.1,2.7h0.1c0.6-1.8,2.1-3,3.8-3c0.3,0,0.5,0,0.7,0.1v2.3
	c-0.3-0.1-0.5-0.1-0.8-0.1c-1.7,0-3,1.3-3.3,3.1c0,0.3-0.1,0.7-0.1,1.2v7.2H423V182.5z"/>
<path class="st5" d="M430.9,181.9c0-1.4,0-2.5-0.1-3.7h2.2l0.1,2.2h0.1c0.8-1.3,2-2.5,4.2-2.5c1.8,0,3.2,1.1,3.8,2.7h0.1
	c0.4-0.7,0.9-1.4,1.5-1.8c0.8-0.6,1.7-0.9,3-0.9c1.8,0,4.4,1.2,4.4,5.9v8h-2.4v-7.6c0-2.6-0.9-4.2-2.9-4.2c-1.4,0-2.5,1-2.9,2.2
	c-0.1,0.3-0.2,0.8-0.2,1.2v8.4h-2.4v-8.1c0-2.1-1-3.7-2.8-3.7c-1.5,0-2.6,1.2-3,2.5c-0.1,0.4-0.2,0.8-0.2,1.2v8.1h-2.4V181.9z"/>
<path class="st5" d="M459.9,184.9c-2.7-0.1-5.7,0.4-5.7,3c0,1.6,1.1,2.4,2.3,2.4c1.8,0,2.9-1.1,3.3-2.3c0.1-0.3,0.1-0.5,0.1-0.8
	V184.9z M460.3,191.8l-0.2-1.7H460c-0.8,1.1-2.2,2-4.1,2c-2.7,0-4.1-1.9-4.1-3.9c0-3.3,2.9-5,8.1-5v-0.3c0-1.1-0.3-3.1-3.1-3.1
	c-1.3,0-2.6,0.4-3.5,1l-0.6-1.6c1.1-0.7,2.7-1.2,4.4-1.2c4.1,0,5.1,2.8,5.1,5.5v5.1c0,1.2,0,2.3,0.2,3.2H460.3z"/>
<path class="st5" d="M467.7,174.4v3.9h3.5v1.9h-3.5v7.3c0,1.7,0.5,2.6,1.8,2.6c0.6,0,1.1-0.1,1.4-0.2l0.1,1.8
	c-0.5,0.2-1.2,0.3-2.2,0.3c-1.1,0-2-0.4-2.6-1.1c-0.7-0.7-0.9-1.9-0.9-3.5v-7.4h-2.1v-1.9h2.1V175L467.7,174.4z"/>
<path class="st5" d="M472.6,178.3h2.4v13.5h-2.4V178.3z M475.3,174.5c0,0.8-0.6,1.5-1.6,1.5c-0.9,0-1.5-0.7-1.5-1.5
	c0-0.8,0.6-1.5,1.5-1.5C474.8,172.9,475.3,173.6,475.3,174.5"/>
<path class="st5" d="M479.3,185.1c0,3,1.7,5.2,4.1,5.2c2.3,0,4.1-2.2,4.1-5.3c0-2.3-1.1-5.2-4.1-5.2
	C480.5,179.8,479.3,182.5,479.3,185.1 M490,184.9c0,5-3.4,7.2-6.7,7.2c-3.7,0-6.5-2.7-6.5-7c0-4.5,2.9-7.2,6.7-7.2
	C487.4,178,490,180.8,490,184.9"/>
<path class="st5" d="M491.7,181.9c0-1.4,0-2.5-0.1-3.7h2.2l0.1,2.2h0.1c0.7-1.3,2.2-2.6,4.5-2.6c1.9,0,4.8,1.1,4.8,5.7v8.1h-2.4V184
	c0-2.2-0.8-4-3.1-4c-1.6,0-2.9,1.1-3.3,2.5c-0.1,0.3-0.2,0.7-0.2,1.2v8.1h-2.5V181.9z"/>
<path class="st5" d="M512.8,189.9c0.5,0.1,1.2,0.1,2,0.1c2.5,0,4.8-0.9,4.8-3.7c0-2.6-2.2-3.6-4.9-3.6h-2V189.9z M512.8,180.9h2.2
	c2.6,0,4.1-1.4,4.1-3.2c0-2.2-1.7-3.1-4.1-3.1c-1.1,0-1.7,0.1-2.1,0.2V180.9z M510.4,173.2c1.1-0.2,2.7-0.4,4.4-0.4
	c2.4,0,4,0.4,5.2,1.4c1,0.7,1.6,1.9,1.6,3.4c0,1.8-1.2,3.4-3.2,4.1v0.1c1.8,0.5,3.9,1.9,3.9,4.7c0,1.6-0.7,2.8-1.6,3.8
	c-1.3,1.2-3.4,1.8-6.5,1.8c-1.7,0-3-0.1-3.8-0.2V173.2z"/>
<path class="st5" d="M535.4,188.1c0,1.4,0,2.6,0.1,3.7h-2.2l-0.1-2.2h-0.1c-0.6,1.1-2.1,2.5-4.5,2.5c-2.1,0-4.7-1.2-4.7-5.9v-7.9
	h2.5v7.5c0,2.6,0.8,4.3,3,4.3c1.6,0,2.8-1.1,3.2-2.2c0.1-0.4,0.2-0.8,0.2-1.3v-8.3h2.5V188.1z"/>
<path class="st5" d="M537.7,189.3c0.7,0.5,2,1,3.2,1c1.8,0,2.6-0.9,2.6-2c0-1.2-0.7-1.8-2.5-2.5c-2.4-0.9-3.6-2.2-3.6-3.8
	c0-2.2,1.8-4,4.7-4c1.4,0,2.6,0.4,3.3,0.8l-0.6,1.8c-0.5-0.3-1.5-0.8-2.8-0.8c-1.4,0-2.2,0.8-2.2,1.8c0,1.1,0.8,1.6,2.6,2.3
	c2.3,0.9,3.5,2.1,3.5,4.1c0,2.4-1.8,4.1-5.1,4.1c-1.5,0-2.8-0.4-3.8-0.9L537.7,189.3z"/>
<path class="st5" d="M547.8,178.3h2.4v13.5h-2.4V178.3z M550.5,174.5c0,0.8-0.6,1.5-1.6,1.5c-0.9,0-1.5-0.7-1.5-1.5
	c0-0.8,0.6-1.5,1.5-1.5C549.9,172.9,550.5,173.6,550.5,174.5"/>
<path class="st5" d="M552.9,181.9c0-1.4,0-2.5-0.1-3.7h2.2l0.1,2.2h0.1c0.7-1.3,2.2-2.6,4.5-2.6c1.9,0,4.8,1.1,4.8,5.7v8.1h-2.5V184
	c0-2.2-0.8-4-3.1-4c-1.6,0-2.9,1.1-3.3,2.5c-0.1,0.3-0.2,0.7-0.2,1.2v8.1h-2.5V181.9z"/>
<path class="st5" d="M575.6,183.7c0-1.5-0.6-4-3.4-4c-2.5,0-3.6,2.3-3.8,4H575.6z M568.4,185.5c0,3.3,2.2,4.7,4.6,4.7
	c1.8,0,2.8-0.3,3.7-0.7l0.4,1.8c-0.9,0.4-2.3,0.8-4.5,0.8c-4.2,0-6.7-2.7-6.7-6.8c0-4.1,2.4-7.3,6.3-7.3c4.4,0,5.6,3.9,5.6,6.4
	c0,0.5-0.1,0.9-0.1,1.2H568.4z"/>
<path class="st5" d="M579.3,189.3c0.7,0.5,2,1,3.2,1c1.8,0,2.6-0.9,2.6-2c0-1.2-0.7-1.8-2.5-2.5c-2.4-0.9-3.6-2.2-3.6-3.8
	c0-2.2,1.8-4,4.7-4c1.4,0,2.6,0.4,3.3,0.8l-0.6,1.8c-0.5-0.3-1.5-0.8-2.8-0.8c-1.5,0-2.3,0.8-2.3,1.8c0,1.1,0.8,1.6,2.6,2.3
	c2.3,0.9,3.5,2.1,3.5,4.1c0,2.4-1.8,4.1-5.1,4.1c-1.5,0-2.8-0.4-3.8-0.9L579.3,189.3z"/>
<path class="st5" d="M588.9,189.3c0.7,0.5,2,1,3.2,1c1.8,0,2.6-0.9,2.6-2c0-1.2-0.7-1.8-2.5-2.5c-2.4-0.9-3.6-2.2-3.6-3.8
	c0-2.2,1.8-4,4.7-4c1.4,0,2.6,0.4,3.3,0.8l-0.6,1.8c-0.6-0.3-1.5-0.8-2.8-0.8c-1.4,0-2.2,0.8-2.2,1.8c0,1.1,0.8,1.6,2.6,2.3
	c2.3,0.9,3.5,2.1,3.5,4.1c0,2.4-1.8,4.1-5.1,4.1c-1.5,0-2.8-0.4-3.8-0.9L588.9,189.3z"/>
<path class="st0" d="M421.2,64.1c-16.9,0-31.1,14.7-31.1,32.6c0,18.6,13.8,33.4,31.3,33.4c17.1,0,31.1-14.7,31.1-33
	C452.5,79,438.5,64.1,421.2,64.1 M421.2,154c-31.5,0-57.2-25.5-57.2-56.9c0-31.2,25.7-56.9,57-56.9c32.5,0,57.6,25.3,57.6,57.7
	C478.6,128.5,452.5,154,421.2,154"/>
<path class="st6" d="M530,81.9c8.2-5.7,12.4-11,12.4-15.9c0-2.8-1-5.1-2.9-6.8c-1.9-1.7-4.5-2.6-7.6-2.6c-3,0-5.4,0.9-7.3,2.8
	c-1.9,1.8-2.9,4.2-2.9,7.1C521.6,70.1,524.4,75.2,530,81.9 M531.4,117.1c-0.4-0.4-1.6-1.7-3.7-4c-2.1-2.3-3.8-4-5-5.1
	c-7.2,5.7-10.8,11-10.8,16.2c0,2.5,1.1,4.7,3.3,6.5c2.2,1.9,4.8,2.8,7.7,2.8c4.3,0,10.2-2.3,17.7-6.9L531.4,117.1z M542.2,95.2
	l17.5,18.5l14.2-12.3l13.2,13.9c-0.3,0.4-2.4,2.4-6.5,6.2c-4,3.8-6.5,5.7-7.4,5.8l23.8,24.9h-31.8l-10.8-11
	c-10.1,5.2-17.4,8.7-21.9,10.3c-4.5,1.6-9.1,2.5-14,2.5c-5.5,0-11.1-1-16.9-3c-5.8-2-10.4-5.5-13.8-10.3c-3.4-4.8-5.1-10-5.1-15.6
	c0-12.7,9.2-23.3,27.6-31.7c-8.1-8.8-12.2-17.6-12.2-26.2c0-7.3,3.2-13.5,9.7-18.8c6.4-5.3,14.2-7.9,23.2-7.9
	c9.5,0,17.5,2.6,23.9,7.7c6.4,5.2,9.6,11.5,9.6,19c0,6.2-2.7,11.8-8.1,16.6C551.1,88.6,546.3,92.4,542.2,95.2"/>
<path class="st0" d="M300.2,86.7c0-0.2,0-0.3-0.1-0.5l-69.3,0v0.6l22.5,21.5h23.1c-0.5,1.4-1.1,2.7-1.8,4c-0.4,0.8-0.8,1.6-1.3,2.3
	C267,125,255.2,132,241.7,132c-20.2,0-36.7-15.7-36.7-34.9c0-19.2,16.5-34.9,36.7-34.9c8.9,0,21.8,1.7,32.8,12
	c2-5.1,7.1-13.2,11.7-16.8c-14-12.5-31.4-17.1-44.5-17.1c-32.9,0-59.6,25.6-59.6,56.9c0,31.4,26.7,56.9,59.6,56.9
	c17.2,0,32.8-7,43.7-18.3c0.4-0.4,0.8-0.9,1.3-1.4c6.1-6.7,10.6-14.8,12.9-23.8c0.1-0.5,0.3-1,0.4-1.6c0.9-3.9,1.3-7.8,1.3-12
	C301.3,93.5,300.9,90.1,300.2,86.7"/>
<path class="st0" d="M304,85.6c4.1-13.9,14.8-21.6,30.2-21.5c16.1,0,26.6,7.7,29.9,21.7L304,85.6z M372.5,138.7
	c-4.7-5-11.3-17.3-12.3-22.1c-5.6,7.3-15.6,13.6-25.5,13.5c-15.5,0-26.8-8.3-29.9-21.5l84.1,0.2c0.8-3.7,1-6.1,1-10
	c0.1-33.8-23.6-58.6-55.9-58.7c-32-0.1-57.3,25.2-57.4,57.2c-0.1,31.8,25.6,56.7,58.7,56.7C350.2,154.1,364.1,147.8,372.5,138.7"/>
<path class="st7" d="M70.9-161.6c-17.1,14.3-36,32.1-55.2,53.8c-4.5-5.9-8.1-12.4-10.7-19.3C5.4-127.6,37.8-144.5,70.9-161.6"/>
<path class="st7" d="M134.2-206.1c-11.9,6.6-35.1,20.8-63.3,44.5c-33.1,17.1-65.6,34-65.9,34.4c6.9-8.8,13.9-16.9,20.8-24.4
	L134.2-206.1z"/>
<path class="st7" d="M70.9-161.6c34.6-17.9,69.9-36.1,69.9-36.1c-14.6,9.6-51.3,35.2-92.5,73.3c-18.7,9.5-32.5,16.5-32.6,16.6
	C35-129.5,53.9-147.3,70.9-161.6"/>
<path class="st7" d="M1.5-139.3c-2-10-2-20.6,0.2-31.1l51.1-22.4C36.4-179.2,18.7-161.7,1.5-139.3"/>
<path class="st7" d="M113.1-144.3c-19.7,16.4-43.5,36.8-68.7,59.7c-8.1-3.8-15.4-9-21.6-15.1C22.8-99.7,52.4-112,113.1-144.3"/>
<path class="st7" d="M44.4-84.6L44.4-84.6c25.2-22.9,49.1-43.3,68.7-59.7c12.1-6.5,25.5-13.7,40.2-21.8
	c-16,13.9-44.4,38.4-85.5,73.2L44.4-84.6z"/>
<path class="st7" d="M22.8-99.7c8.6-8.7,17.1-17,25.5-24.7c37.9-19.2,96.2-48.6,103-50.9c-9.2,7.3-22.3,17.9-38.1,31
	C52.4-112,22.8-99.7,22.8-99.7"/>
<path class="st7" d="M67.8-92.9c41.1-34.9,69.5-59.3,85.5-73.2c1.7,10.8,1.1,22.2-2.2,33.4c-1.2,4-2.6,7.8-4.3,11.4
	c-0.2,0.2-0.4,0.3-0.6,0.5L67.8-92.9z"/>
<path class="st7" d="M53.6-81c4.9-4.1,9.6-8.1,14.1-12l78.3-27.9c-13.6,12-30.2,25.9-50.1,41.2c-12.9,3.3-26.8,3.3-40.5-0.8
	C54.9-80.6,54.3-80.8,53.6-81"/>
<path class="st7" d="M25.9-151.6L1.5-139.3c17.2-22.3,34.9-39.9,51.3-53.6l63.4-27.8C96.5-210.9,61.7-190.1,25.9-151.6"/>
<path class="st7" d="M25.9-151.6c35.9-38.5,70.6-59.3,90.4-69.2c6.8,4,12.8,9,18,14.7L25.9-151.6z"/>
<path class="st7" d="M140.8-197.7L140.8-197.7c4.6,6.8,8.2,14.4,10.4,22.4c-6.7,2.3-65,31.7-103,51
	C89.5-162.5,126.2-188.1,140.8-197.7"/>
<path class="st7" d="M52.9-192.9L1.8-170.5c0-0.1,0-0.2,0.1-0.3c22.7-29.8,59.3-57.3,80.5-69.1c9.1-0.7,7.1,8.8,16.5,11.6
	c1.6,0.5-1.7,4-7.4,5.7C79.6-214.9,72.3-209.1,52.9-192.9"/>
<path class="st7" d="M106.3-238.9c-2.7-1.3-3.8-4.5-2.5-7.1c1.3-2.7,4.5-3.8,7.1-2.5c2.6,1.3,3.8,4.5,2.5,7.1
	C112.2-238.7,109-237.6,106.3-238.9 M130.7-253.8c0.4-1.3-0.4-2.7-1.7-3.1c-8.7-2.5-17.2-4.5-25.6-1.9c-4.4,1.3-8.5,3.9-12,6.9
	c-6.1-1.4-17.6,4-17.6,4s2,2.9,3.9,5.5c1.1,1.4,2.1,2.8,2.8,3.5c-0.9,1.5-1.7,2.9-2.4,4.3c-0.3,0.7-0.3,1.6,0.1,2.3l4.7,8.4
	c0.3,0.6,0.9,1,1.5,1.2c0.1,0,3.6,0.4,5.4,0.4c0.1,0.5,0.4,1.2,0.6,1.9c1.2,3.4,3.5,8.6,3.5,8.6s10.7-6.9,12.8-12.8
	c4.5-1.4,8.8-3.5,12.3-6.6C125.5-236.8,128.4-245.4,130.7-253.8"/>
<path class="st5" d="M193.2-76l-1.8-5.4c-0.4-1.2-0.7-2.4-1-3.4h-0.1c-0.3,1.1-0.6,2.3-1,3.4l-1.8,5.5H193.2z M187-74.1l-2,5.9h-2.5
	l6.4-18.8h2.9l6.4,18.8h-2.6l-2-5.9H187z"/>
<path class="st5" d="M206.6-77.7c0.5,0.2,1.2,0.2,2,0.2c2.9,0,4.7-1.4,4.7-4c0-2.5-1.8-3.7-4.4-3.7c-1.1,0-1.9,0.1-2.3,0.2V-77.7z
	 M204.2-86.8c1.2-0.2,2.7-0.4,4.7-0.4c2.4,0,4.2,0.6,5.3,1.6c1,0.9,1.7,2.3,1.7,3.9c0,1.7-0.5,3.1-1.5,4c-1.3,1.4-3.4,2.1-5.7,2.1
	c-0.7,0-1.4,0-2-0.2v7.5h-2.4V-86.8z"/>
<path class="st5" d="M224-75.1c-2.7-0.1-5.7,0.4-5.7,3c0,1.6,1.1,2.4,2.3,2.4c1.8,0,2.9-1.1,3.3-2.3c0.1-0.3,0.1-0.5,0.1-0.8V-75.1z
	 M224.3-68.2l-0.2-1.7h-0.1c-0.8,1.1-2.2,2-4.1,2c-2.7,0-4.1-1.9-4.1-3.9c0-3.3,2.9-5,8.1-5v-0.3c0-1.1-0.3-3.1-3.1-3.1
	c-1.3,0-2.6,0.4-3.5,1l-0.6-1.6c1.1-0.7,2.7-1.2,4.4-1.2c4.1,0,5.1,2.8,5.1,5.5v5.1c0,1.2,0.1,2.3,0.2,3.2H224.3z"/>
<path class="st5" d="M228.9-77.5c0-1.6,0-3-0.1-4.2h2.2l0.1,2.7h0.1c0.6-1.8,2.1-3,3.7-3c0.3,0,0.5,0,0.7,0.1v2.3
	c-0.3-0.1-0.5-0.1-0.8-0.1c-1.7,0-2.9,1.3-3.3,3.1c-0.1,0.3-0.1,0.7-0.1,1.2v7.2h-2.4V-77.5z"/>
<path class="st5" d="M240.3-85.6v3.9h3.5v1.9h-3.5v7.3c0,1.7,0.5,2.6,1.8,2.6c0.6,0,1.1-0.1,1.4-0.2l0.1,1.8
	c-0.5,0.2-1.2,0.3-2.2,0.3c-1.2,0-2.1-0.4-2.6-1.1c-0.7-0.7-1-1.9-1-3.5v-7.4h-2.1v-1.9h2.1V-85L240.3-85.6z"/>
<path class="st5" d="M245.2-78.1c0-1.4,0-2.5-0.1-3.7h2.2l0.1,2.2h0.1c0.7-1.3,2.2-2.6,4.5-2.6c1.9,0,4.8,1.1,4.8,5.7v8.1h-2.5V-76
	c0-2.2-0.8-4-3.1-4c-1.6,0-2.9,1.1-3.3,2.5c-0.1,0.3-0.2,0.7-0.2,1.2v8.1h-2.5V-78.1z"/>
<path class="st5" d="M267.9-76.3c0-1.5-0.6-4-3.4-4c-2.5,0-3.6,2.3-3.8,4H267.9z M260.7-74.5c0.1,3.3,2.2,4.7,4.6,4.7
	c1.8,0,2.8-0.3,3.7-0.7l0.4,1.8c-0.9,0.4-2.3,0.8-4.5,0.8c-4.2,0-6.6-2.7-6.6-6.8c0-4.1,2.4-7.3,6.3-7.3c4.4,0,5.6,3.9,5.6,6.4
	c0,0.5-0.1,0.9-0.1,1.2H260.7z"/>
<path class="st5" d="M271.9-77.5c0-1.6,0-3-0.1-4.2h2.1l0.1,2.7h0.1c0.6-1.8,2.1-3,3.7-3c0.3,0,0.5,0,0.7,0.1v2.3
	c-0.3-0.1-0.5-0.1-0.9-0.1c-1.7,0-2.9,1.3-3.3,3.1c0,0.3-0.1,0.7-0.1,1.2v7.2h-2.4V-77.5z"/>
<path class="st5" d="M285.7-74.9c0,3,1.7,5.2,4.1,5.2c2.3,0,4.1-2.2,4.1-5.3c0-2.3-1.2-5.2-4.1-5.2
	C286.9-80.2,285.7-77.5,285.7-74.9 M296.4-75.1c0,5-3.5,7.2-6.7,7.2c-3.7,0-6.5-2.7-6.5-7c0-4.5,3-7.2,6.7-7.2
	C293.8-82,296.4-79.2,296.4-75.1"/>
<path class="st5" d="M298.4-68.2v-11.6h-1.9v-1.9h1.9v-0.6c0-1.9,0.4-3.6,1.6-4.7c0.9-0.9,2.2-1.3,3.3-1.3c0.9,0,1.6,0.2,2.1,0.4
	l-0.3,1.9c-0.4-0.2-0.9-0.3-1.6-0.3c-2.1,0-2.6,1.8-2.6,3.9v0.7h3.3v1.9h-3.3v11.6H298.4z"/>
<path class="st5" d="M309.2-71.2c1.1,0.7,2.7,1.2,4.3,1.2c2.5,0,3.9-1.3,3.9-3.2c0-1.8-1-2.8-3.5-3.8c-3.1-1.1-5-2.7-5-5.3
	c0-2.9,2.4-5.1,6.1-5.1c1.9,0,3.3,0.5,4.2,0.9l-0.7,2c-0.6-0.3-1.9-0.9-3.6-0.9c-2.6,0-3.5,1.5-3.5,2.8c0,1.8,1.2,2.6,3.7,3.6
	c3.2,1.2,4.8,2.8,4.8,5.5c0,2.9-2.2,5.4-6.6,5.4c-1.8,0-3.8-0.5-4.8-1.2L309.2-71.2z"/>
<path class="st5" d="M324.2-73.7c0,0.4,0,0.7,0.1,1c0.4,1.7,1.9,2.9,3.7,2.9c2.6,0,4.1-2.1,4.1-5.2c0-2.7-1.4-5-4-5
	c-1.7,0-3.2,1.2-3.7,3c-0.1,0.3-0.2,0.7-0.2,1V-73.7z M321.8-77.3c0-1.7-0.1-3.1-0.1-4.4h2.2l0.1,2.3h0c1-1.6,2.6-2.6,4.8-2.6
	c3.3,0,5.7,2.8,5.7,6.9c0,4.8-3,7.3-6.1,7.3c-1.8,0-3.3-0.8-4.2-2.1h0v7.4h-2.4V-77.3z"/>
<path class="st5" d="M343.4-75.1c-2.7-0.1-5.7,0.4-5.7,3c0,1.6,1.1,2.4,2.3,2.4c1.8,0,2.9-1.1,3.3-2.3c0.1-0.3,0.1-0.5,0.1-0.8
	V-75.1z M343.8-68.2l-0.2-1.7h-0.1c-0.8,1.1-2.2,2-4.1,2c-2.7,0-4.1-1.9-4.1-3.9c0-3.3,2.9-5,8.1-5v-0.3c0-1.1-0.3-3.1-3.1-3.1
	c-1.3,0-2.6,0.4-3.5,1l-0.5-1.6c1.1-0.7,2.7-1.2,4.4-1.2c4.1,0,5.1,2.8,5.1,5.5v5.1c0,1.2,0.1,2.3,0.2,3.2H343.8z"/>
<path class="st5" d="M351.2-85.6v3.9h3.5v1.9h-3.5v7.3c0,1.7,0.5,2.6,1.8,2.6c0.6,0,1.1-0.1,1.4-0.2l0.1,1.8
	c-0.5,0.2-1.2,0.3-2.2,0.3c-1.1,0-2.1-0.4-2.7-1.1c-0.7-0.7-0.9-1.9-0.9-3.5v-7.4h-2.1v-1.9h2.1V-85L351.2-85.6z"/>
<path class="st5" d="M356.1-81.7h2.5v13.5h-2.5V-81.7z M358.8-85.5c0,0.8-0.6,1.5-1.6,1.5c-0.9,0-1.5-0.7-1.5-1.5
	c0-0.8,0.6-1.5,1.5-1.5C358.2-87.1,358.8-86.4,358.8-85.5"/>
<path class="st5" d="M368.4-75.1c-2.7-0.1-5.7,0.4-5.7,3c0,1.6,1.1,2.4,2.3,2.4c1.8,0,2.9-1.1,3.3-2.3c0.1-0.3,0.2-0.5,0.2-0.8
	V-75.1z M368.7-68.2l-0.2-1.7h-0.1c-0.7,1.1-2.2,2-4.1,2c-2.7,0-4.1-1.9-4.1-3.9c0-3.3,2.9-5,8.1-5v-0.3c0-1.1-0.3-3.1-3.1-3.1
	c-1.3,0-2.6,0.4-3.5,1l-0.6-1.6c1.1-0.7,2.7-1.2,4.4-1.2c4.1,0,5.1,2.8,5.1,5.5v5.1c0,1.2,0.1,2.3,0.2,3.2H368.7z"/>
<path class="st5" d="M388.6-78.1c0-1.4,0-2.5-0.1-3.7h2.2l0.1,2.2h0.1c0.7-1.3,2.2-2.6,4.5-2.6c1.9,0,4.8,1.1,4.8,5.7v8.1h-2.5V-76
	c0-2.2-0.8-4-3.1-4c-1.6,0-2.9,1.1-3.3,2.5c-0.1,0.3-0.2,0.7-0.2,1.2v8.1h-2.5V-78.1z"/>
<rect x="373.3" y="-88" class="st5" width="2.5" height="19.8"/>
<rect x="383.1" y="-87" class="st5" width="2.4" height="18.8"/>
<path class="st5" d="M402.9-68.2v-11.6H401v-1.9h1.9v-0.6c0-1.9,0.4-3.6,1.6-4.7c0.9-0.9,2.1-1.3,3.3-1.3c0.9,0,1.6,0.2,2.1,0.4
	l-0.3,1.9c-0.4-0.2-0.9-0.3-1.6-0.3c-2.1,0-2.6,1.8-2.6,3.9v0.7h3.3v1.9h-3.3v11.6H402.9z"/>
<path class="st5" d="M410.6-74.9c0,3,1.7,5.2,4.1,5.2c2.3,0,4.1-2.2,4.1-5.3c0-2.3-1.1-5.2-4-5.2C411.9-80.2,410.6-77.5,410.6-74.9
	 M421.3-75.1c0,5-3.5,7.2-6.7,7.2c-3.7,0-6.5-2.7-6.5-7c0-4.5,3-7.2,6.7-7.2C418.7-82,421.3-79.2,421.3-75.1"/>
<path class="st5" d="M423-77.5c0-1.6,0-3-0.1-4.2h2.2l0.1,2.7h0.1c0.6-1.8,2.1-3,3.8-3c0.3,0,0.5,0,0.7,0.1v2.3
	c-0.3-0.1-0.5-0.1-0.8-0.1c-1.7,0-3,1.3-3.3,3.1c0,0.3-0.1,0.7-0.1,1.2v7.2H423V-77.5z"/>
<path class="st5" d="M430.9-78.1c0-1.4,0-2.5-0.1-3.7h2.2l0.1,2.2h0.1c0.8-1.3,2-2.5,4.2-2.5c1.8,0,3.2,1.1,3.8,2.7h0.1
	c0.4-0.7,0.9-1.4,1.5-1.8c0.8-0.6,1.7-0.9,3-0.9c1.8,0,4.4,1.2,4.4,5.9v8h-2.4v-7.6c0-2.6-0.9-4.2-2.9-4.2c-1.4,0-2.5,1-2.9,2.2
	c-0.1,0.3-0.2,0.8-0.2,1.2v8.4h-2.4v-8.1c0-2.1-1-3.7-2.8-3.7c-1.5,0-2.6,1.2-3,2.5c-0.1,0.4-0.2,0.8-0.2,1.2v8.1h-2.4V-78.1z"/>
<path class="st5" d="M459.9-75.1c-2.7-0.1-5.7,0.4-5.7,3c0,1.6,1.1,2.4,2.3,2.4c1.8,0,2.9-1.1,3.3-2.3c0.1-0.3,0.1-0.5,0.1-0.8
	V-75.1z M460.3-68.2l-0.2-1.7H460c-0.8,1.1-2.2,2-4.1,2c-2.7,0-4.1-1.9-4.1-3.9c0-3.3,2.9-5,8.1-5v-0.3c0-1.1-0.3-3.1-3.1-3.1
	c-1.3,0-2.6,0.4-3.5,1l-0.6-1.6c1.1-0.7,2.7-1.2,4.4-1.2c4.1,0,5.1,2.8,5.1,5.5v5.1c0,1.2,0,2.3,0.2,3.2H460.3z"/>
<path class="st5" d="M467.7-85.6v3.9h3.5v1.9h-3.5v7.3c0,1.7,0.5,2.6,1.8,2.6c0.6,0,1.1-0.1,1.4-0.2l0.1,1.8
	c-0.5,0.2-1.2,0.3-2.2,0.3c-1.1,0-2-0.4-2.6-1.1c-0.7-0.7-0.9-1.9-0.9-3.5v-7.4h-2.1v-1.9h2.1V-85L467.7-85.6z"/>
<path class="st5" d="M472.6-81.7h2.4v13.5h-2.4V-81.7z M475.3-85.5c0,0.8-0.6,1.5-1.6,1.5c-0.9,0-1.5-0.7-1.5-1.5
	c0-0.8,0.6-1.5,1.5-1.5C474.8-87.1,475.3-86.4,475.3-85.5"/>
<path class="st5" d="M479.3-74.9c0,3,1.7,5.2,4.1,5.2c2.3,0,4.1-2.2,4.1-5.3c0-2.3-1.1-5.2-4.1-5.2
	C480.5-80.2,479.3-77.5,479.3-74.9 M490-75.1c0,5-3.4,7.2-6.7,7.2c-3.7,0-6.5-2.7-6.5-7c0-4.5,2.9-7.2,6.7-7.2
	C487.4-82,490-79.2,490-75.1"/>
<path class="st5" d="M491.7-78.1c0-1.4,0-2.5-0.1-3.7h2.2l0.1,2.2h0.1c0.7-1.3,2.2-2.6,4.5-2.6c1.9,0,4.8,1.1,4.8,5.7v8.1h-2.4V-76
	c0-2.2-0.8-4-3.1-4c-1.6,0-2.9,1.1-3.3,2.5c-0.1,0.3-0.2,0.7-0.2,1.2v8.1h-2.5V-78.1z"/>
<path class="st5" d="M512.8-70.1c0.5,0.1,1.2,0.1,2,0.1c2.5,0,4.8-0.9,4.8-3.7c0-2.6-2.2-3.6-4.9-3.6h-2V-70.1z M512.8-79.1h2.2
	c2.6,0,4.1-1.4,4.1-3.2c0-2.2-1.7-3.1-4.1-3.1c-1.1,0-1.7,0.1-2.1,0.2V-79.1z M510.4-86.8c1.1-0.2,2.7-0.4,4.4-0.4
	c2.4,0,4,0.4,5.2,1.4c1,0.7,1.6,1.9,1.6,3.4c0,1.8-1.2,3.4-3.2,4.1v0.1c1.8,0.5,3.9,1.9,3.9,4.7c0,1.6-0.7,2.8-1.6,3.8
	c-1.3,1.2-3.4,1.8-6.5,1.8c-1.7,0-3-0.1-3.8-0.2V-86.8z"/>
<path class="st5" d="M535.4-71.9c0,1.4,0,2.6,0.1,3.7h-2.2l-0.1-2.2h-0.1c-0.6,1.1-2.1,2.5-4.5,2.5c-2.1,0-4.7-1.2-4.7-5.9v-7.9h2.5
	v7.5c0,2.6,0.8,4.3,3,4.3c1.6,0,2.8-1.1,3.2-2.2c0.1-0.4,0.2-0.8,0.2-1.3v-8.3h2.5V-71.9z"/>
<path class="st5" d="M537.7-70.7c0.7,0.5,2,1,3.2,1c1.8,0,2.6-0.9,2.6-2c0-1.2-0.7-1.8-2.5-2.5c-2.4-0.9-3.6-2.2-3.6-3.8
	c0-2.2,1.8-4,4.7-4c1.4,0,2.6,0.4,3.3,0.8l-0.6,1.8c-0.5-0.3-1.5-0.8-2.8-0.8c-1.4,0-2.2,0.8-2.2,1.8c0,1.1,0.8,1.6,2.6,2.3
	c2.3,0.9,3.5,2.1,3.5,4.1c0,2.4-1.8,4.1-5.1,4.1c-1.5,0-2.8-0.4-3.8-0.9L537.7-70.7z"/>
<path class="st5" d="M547.8-81.7h2.4v13.5h-2.4V-81.7z M550.5-85.5c0,0.8-0.6,1.5-1.6,1.5c-0.9,0-1.5-0.7-1.5-1.5
	c0-0.8,0.6-1.5,1.5-1.5C549.9-87.1,550.5-86.4,550.5-85.5"/>
<path class="st5" d="M552.9-78.1c0-1.4,0-2.5-0.1-3.7h2.2l0.1,2.2h0.1c0.7-1.3,2.2-2.6,4.5-2.6c1.9,0,4.8,1.1,4.8,5.7v8.1h-2.5V-76
	c0-2.2-0.8-4-3.1-4c-1.6,0-2.9,1.1-3.3,2.5c-0.1,0.3-0.2,0.7-0.2,1.2v8.1h-2.5V-78.1z"/>
<path class="st5" d="M575.6-76.3c0-1.5-0.6-4-3.4-4c-2.5,0-3.6,2.3-3.8,4H575.6z M568.4-74.5c0,3.3,2.2,4.7,4.6,4.7
	c1.8,0,2.8-0.3,3.7-0.7l0.4,1.8c-0.9,0.4-2.3,0.8-4.5,0.8c-4.2,0-6.7-2.7-6.7-6.8c0-4.1,2.4-7.3,6.3-7.3c4.4,0,5.6,3.9,5.6,6.4
	c0,0.5-0.1,0.9-0.1,1.2H568.4z"/>
<path class="st5" d="M579.3-70.7c0.7,0.5,2,1,3.2,1c1.8,0,2.6-0.9,2.6-2c0-1.2-0.7-1.8-2.5-2.5c-2.4-0.9-3.6-2.2-3.6-3.8
	c0-2.2,1.8-4,4.7-4c1.4,0,2.6,0.4,3.3,0.8l-0.6,1.8c-0.5-0.3-1.5-0.8-2.8-0.8c-1.5,0-2.3,0.8-2.3,1.8c0,1.1,0.8,1.6,2.6,2.3
	c2.3,0.9,3.5,2.1,3.5,4.1c0,2.4-1.8,4.1-5.1,4.1c-1.5,0-2.8-0.4-3.8-0.9L579.3-70.7z"/>
<path class="st5" d="M588.9-70.7c0.7,0.5,2,1,3.2,1c1.8,0,2.6-0.9,2.6-2c0-1.2-0.7-1.8-2.5-2.5c-2.4-0.9-3.6-2.2-3.6-3.8
	c0-2.2,1.8-4,4.7-4c1.4,0,2.6,0.4,3.3,0.8l-0.6,1.8c-0.6-0.3-1.5-0.8-2.8-0.8c-1.4,0-2.2,0.8-2.2,1.8c0,1.1,0.8,1.6,2.6,2.3
	c2.3,0.9,3.5,2.1,3.5,4.1c0,2.4-1.8,4.1-5.1,4.1c-1.5,0-2.8-0.4-3.8-0.9L588.9-70.7z"/>
<path class="st0" d="M421.2-195.9c-16.9,0-31.1,14.7-31.1,32.6c0,18.6,13.8,33.4,31.3,33.4c17.1,0,31.1-14.7,31.1-33
	C452.5-181,438.5-195.9,421.2-195.9 M421.2-106c-31.5,0-57.2-25.5-57.2-56.9c0-31.2,25.7-56.9,57-56.9c32.5,0,57.6,25.3,57.6,57.7
	C478.6-131.5,452.5-106,421.2-106"/>
<path class="st6" d="M530-178.1c8.2-5.7,12.4-11,12.4-15.9c0-2.8-1-5.1-2.9-6.8c-1.9-1.7-4.5-2.6-7.6-2.6c-3,0-5.4,0.9-7.3,2.8
	c-1.9,1.8-2.9,4.2-2.9,7.1C521.6-189.9,524.4-184.8,530-178.1 M531.4-142.9c-0.4-0.4-1.6-1.7-3.7-4c-2.1-2.3-3.8-4-5-5.1
	c-7.2,5.7-10.8,11-10.8,16.2c0,2.5,1.1,4.7,3.3,6.5c2.2,1.9,4.8,2.8,7.7,2.8c4.3,0,10.2-2.3,17.7-6.9L531.4-142.9z M542.2-164.8
	l17.5,18.5l14.2-12.3l13.2,13.9c-0.3,0.4-2.4,2.4-6.5,6.2c-4,3.8-6.5,5.7-7.4,5.8l23.8,24.9h-31.8l-10.8-11
	c-10.1,5.2-17.4,8.7-21.9,10.3c-4.5,1.6-9.1,2.5-14,2.5c-5.5,0-11.1-1-16.9-3c-5.8-2-10.4-5.5-13.8-10.3c-3.4-4.8-5.1-10-5.1-15.6
	c0-12.7,9.2-23.3,27.6-31.7c-8.1-8.8-12.2-17.6-12.2-26.2c0-7.3,3.2-13.5,9.7-18.8c6.4-5.3,14.2-7.9,23.2-7.9
	c9.5,0,17.5,2.6,23.9,7.7c6.4,5.2,9.6,11.5,9.6,19c0,6.2-2.7,11.8-8.1,16.6C551.1-171.4,546.3-167.6,542.2-164.8"/>
<path class="st0" d="M300.2-173.3c0-0.2,0-0.3-0.1-0.5l-69.3,0v0.6l22.5,21.5h23.1c-0.5,1.4-1.1,2.7-1.8,4c-0.4,0.8-0.8,1.6-1.3,2.3
	C267-135,255.2-128,241.7-128c-20.2,0-36.7-15.7-36.7-34.9c0-19.2,16.5-34.9,36.7-34.9c8.9,0,21.8,1.7,32.8,12
	c2-5.1,7.1-13.2,11.7-16.8c-14-12.5-31.4-17.1-44.5-17.1c-32.9,0-59.6,25.6-59.6,56.9c0,31.4,26.7,56.9,59.6,56.9
	c17.2,0,32.8-7,43.7-18.3c0.4-0.4,0.8-0.9,1.3-1.4c6.1-6.7,10.6-14.8,12.9-23.8c0.1-0.5,0.3-1,0.4-1.6c0.9-3.9,1.3-7.8,1.3-12
	C301.3-166.5,300.9-169.9,300.2-173.3"/>
<path class="st0" d="M304-174.4c4.1-13.9,14.8-21.6,30.2-21.5c16.1,0,26.6,7.7,29.9,21.7L304-174.4z M372.5-121.3
	c-4.7-5-11.3-17.3-12.3-22.1c-5.6,7.3-15.6,13.6-25.5,13.5c-15.5,0-26.8-8.3-29.9-21.5l84.1,0.2c0.8-3.7,1-6.1,1-10
	c0.1-33.8-23.6-58.6-55.9-58.7c-32-0.1-57.3,25.2-57.4,57.2c-0.1,31.8,25.6,56.7,58.7,56.7C350.2-105.9,364.1-112.2,372.5-121.3"/>
</svg>
