<?xml version="1.0" encoding="UTF-8"?>
<svg id="_레이어_2" data-name="레이어 2" xmlns="http://www.w3.org/2000/svg" viewBox="0 0 194.55 184.53">
  <defs>
    <style>
      .cls-1 {
        fill: #009893;
      }
    </style>
  </defs>
  <g id="_레이어_2-2" data-name="레이어 2">
    <path class="cls-1" d="m194.24,93.67c3.37-36.91-21.95-78.03-38.72-78.03-10.56,0-18.13,23.47-34.56,23.47C113.06,20.28,103.26,0,93.25,0c-14.56,0-25.35,41.8-40.35,41.8-16.16,0-15.7-30.99-31.2-13.75C-5.06,57.81-2.74,95.88,5.8,120.67c9.05,26.28,37.86,63.86,93.04,63.86,45.06,0,74.8-32.07,85.05-52.65,0-.02-.02-.05-.05-.02-17.83,19.62-48.06,37.86-83.66,37.86-16.68,0-42.79-4.86-47.9-24.05,0,0-19.82-8.82-25.35-19.05,0,0-.14-4.06,2.45-6.7.84,1.46,10.4,16.88,37.82,26.27,35.17,12.04,70.56,3.92,80.07-2.08.02-.02,0-.03-.02-.02-14.82,4.94-62.7,6.48-84.87-6.62-6.94-4.09-8.53-9.33,3.59-10.46,7.26-.67,19.24.19,37.57,3.96,78.6,16.14,89.66-21.63,88.68-24.36-1-2.78-12.56-12.21-32.3-9.15-36.11,6.41-66.96,31.79-100.21,10.92-20.17-12.67-20.2-41.55-28.76-44.02,0,0,0,0,0-.02,4.88-2.64,9.59-9.98,17.04-9.98,4.61,0,6.92,1.54,12.34,7.72,11.47,13.11,24.64,24.64,46.05,27.26,17.77,1.95,35.95-7,17.47-43.08-.02-.03,0-.06.04-.02,13.62,11.98,24.03,30.12,15.27,42.29,0,0,34.74-12.97,55.08,5.14Zm-20.57,18.04c2.16.05,3.88,1.43,3.82,3.11-.06,1.66-1.88,2.97-4.05,2.93-2.16-.04-3.88-1.43-3.81-3.11.05-1.67,1.87-2.98,4.03-2.93ZM43.86,64.54c-.05,1.72,1.31,3.14,3.04,3.18,1.7.04,3.14-1.32,3.16-3.03.05-1.71-1.31-3.14-3.03-3.18-1.71-.05-3.13,1.32-3.17,3.03Z"/>
  </g>
</svg>