<?xml version="1.0" encoding="UTF-8"?>
<svg id="_레이어_2" data-name="레이어 2" xmlns="http://www.w3.org/2000/svg" viewBox="0 0 64.08 19.29">
  <defs>
    <style>
      .cls-1 {
        fill: #009893;
      }
    </style>
  </defs>
  <g id="Layer_1" data-name="Layer 1">
    <g>
      <path class="cls-1" d="m30.87,2.28c0-.83-.42-1.25-1.27-1.25h-6.75v1.71h4.37c.39,0,.58.22.58.61,0,2.64-1.37,6.07-5.74,9.43l.86,1.47c1.67-.95,3.49-2.51,4.77-4,.85,1.08,2.38,2.85,3.89,3.88l1.04-1.32s-2.35-2.69-3.36-4.94c.88-1.51,1.6-4.1,1.6-5.59Z"/>
      <path class="cls-1" d="m35.33.04l-2.54-.04c-.15,0-.25.06-.28.22-.03.13.03.27.17.31.49.13.74.4.74.8v4.77h-2.57v1.72h2.57v10.65h1.27c.99,0,1.42-.48,1.42-1.77V.83c0-.52-.26-.78-.79-.78Z"/>
      <path class="cls-1" d="m39.37.04l-2.54-.04c-.15,0-.25.06-.28.22-.03.13.03.27.17.31.49.13.74.4.74.8v17.95h1.27c.99,0,1.42-.48,1.42-1.77V.83c0-.52-.26-.78-.78-.78Z"/>
      <path class="cls-1" d="m60.46,8.02c.36-1.71.55-3.93.55-5.83,0-1.05-.49-1.43-1.57-1.43h-12.65v1.72h10.45c.71,0,.82.3.8.77-.03.84-.22,3.71-.47,4.77h-13.11v1.7h8.69s0,5.27,0,5.27h1.38c.95,0,1.54-.55,1.54-1.62v-3.66h8v-1.7h-3.62Z"/>
      <path class="cls-1" d="m13.13.57c.54.14.81.44.81.87v13.05h1.38c1.08,0,1.54-.53,1.54-1.93V.9c0-.57-.29-.85-.85-.85l-2.76-.05c-.16,0-.27.06-.31.23-.03.14.04.29.19.34Z"/>
      <path class="cls-1" d="m7.11,16.86v-3.73c0-.57-.29-.85-.86-.85l-2.76-.05c-.16,0-.27.06-.31.23-.03.14.04.29.18.34.54.14.8.44.8.87v3.58c0,1.18.68,1.85,1.91,1.85h11.29v-1.7H7.69c-.35,0-.57-.2-.57-.54Z"/>
      <path class="cls-1" d="m50.32,16.86v-3.73c0-.57-.29-.85-.85-.85l-2.76-.05c-.16,0-.27.06-.31.23-.03.14.04.29.18.34.54.14.8.44.8.87v3.58c0,1.18.68,1.85,1.91,1.85h12.31v-1.7h-10.72c-.34,0-.57-.2-.57-.54Z"/>
      <path class="cls-1" d="m10.77,5.45C10.77,2.55,8.62.42,5.38.42S0,2.62,0,5.45s1.92,5.03,5.38,5.03c3.01,0,5.39-1.98,5.39-5.03Zm-7.83,0c0-1.86.91-3.31,2.44-3.31s2.45,1.4,2.45,3.31c0,2.01-1.08,3.31-2.45,3.31-1.57,0-2.44-1.5-2.44-3.31Z"/>
    </g>
  </g>
</svg>