<?xml version="1.0" encoding="UTF-8"?>
<svg id="_레이어_2" data-name="레이어 2" xmlns="http://www.w3.org/2000/svg" viewBox="0 0 49.49 10.28">
  <defs>
    <style>
      .cls-1 {
        fill: #716b6a;
      }
    </style>
  </defs>
  <g id="Layer_1" data-name="Layer 1">
    <g>
      <g>
        <path class="cls-1" d="m5.1,1c0-.13-.07-.2-.2-.2l-.66-.02c-.05,0-.08.02-.1.07,0,.04.01.09.05.1.16.04.22.16.22.29v6.41s.32,0,.32,0c.25,0,.36-.12.36-.44v-3.22h1.03v-.59h-1.03V1Z"/>
        <path class="cls-1" d="m2.23,1c0-.13-.06-.19-.19-.19l-.6-.02s-.07.02-.08.06c0,.04.01.08.05.09.14.04.16.11.16.25v.47H0v.58h3.79v-.58h-1.56v-.68Z"/>
        <path class="cls-1" d="m7.52.97c.16.04.22.16.22.29v1.01c0,.33.2.54.7.53h3.72v-.58h-3.72v-1.22c0-.13-.07-.2-.2-.2l-.67-.02s-.08.02-.09.07c0,.05.01.09.06.1Z"/>
        <path class="cls-1" d="m1.88,2.59c-.94,0-1.57.76-1.57,1.67s.65,1.68,1.57,1.68c.86,0,1.56-.68,1.56-1.68s-.7-1.67-1.56-1.67Zm0,2.76c-.53,0-.9-.49-.9-1.09s.35-1.09.9-1.09c.5,0,.9.44.9,1.09s-.4,1.09-.9,1.09Z"/>
        <rect class="cls-1" x="6.76" y="3.42" width="6.17" height=".58"/>
        <path class="cls-1" d="m21.89,5.52c0-.13-.07-.2-.2-.2h-.67s-.08.01-.09.06c-.01.04.01.09.05.1.16.04.22.16.22.29v1.12c0,.34.2.54.7.54h3.47v-.59h-3.48v-1.33Z"/>
        <path class="cls-1" d="m25.05.79h-.66s-.08,0-.1.06c0,.04,0,.09.06.1.16.04.22.15.22.29v2.46c-.52.45-1.16.56-2,.56h-1.35c-.14,0-.27-.06-.27-.22v-.83h1.82c.3,0,.48-.14.48-.41v-1.03c0-.34-.2-.54-.7-.54h-2.28v.58h2.3v.82h-2.4c-.05,0-.09.01-.1.06,0,.04.02.08.05.1.1.03.15.09.15.2v1.13c0,.49.42.71.88.71h1.37c1.06,0,1.63-.13,2.05-.51v1.5h.32c.25,0,.36-.12.36-.45V.99c0-.14-.07-.2-.2-.2Z"/>
        <path class="cls-1" d="m8.43,6.23h3.67v-1.12c0-.34-.17-.54-.59-.54h-3.85v.58h3.76v.56h-3.78c-.05,0-.09,0-.1.06,0,.04.02.08.05.09.1.03.15.1.15.21v.84c0,.34.2.54.7.54h3.73v-.58h-3.75v-.63Z"/>
        <path class="cls-1" d="m18.64.81l-.66-.02s-.08.02-.09.07c0,.04.01.09.06.1.16.04.21.16.21.29v1.96h-.72V1c0-.13-.07-.2-.2-.2l-.66-.02s-.08.02-.09.07c-.01.04,0,.09.05.1.16.04.22.16.22.29v3.3c-.26.25-.75.43-1.29.43h-.81c-.18,0-.31-.06-.31-.3V1.41c0-.13-.07-.2-.2-.2h-.66s-.08,0-.09.06c0,.04,0,.09.06.11.16.04.22.15.22.29v3.16c0,.43.28.75.84.75h.75c.63,0,1.18-.15,1.51-.4v2.49h.32c.25,0,.36-.12.36-.44v-3.41h.72v3.85h.32c.25,0,.36-.12.36-.44V1c0-.13-.07-.2-.2-.2Z"/>
      </g>
      <g>
        <path class="cls-1" d="m44.53,1.21c0-.44-.23-.67-.68-.67h-3.6v.91h2.33c.21,0,.31.12.31.33,0,1.41-.73,3.23-3.06,5.03l.46.78c.89-.51,1.86-1.34,2.54-2.13.45.57,1.27,1.52,2.07,2.07l.56-.71s-1.25-1.43-1.79-2.63c.47-.8.85-2.19.85-2.98Z"/>
        <path class="cls-1" d="m49.07.02l-1.35-.02c-.08,0-.13.03-.15.11-.01.07.02.14.09.17.27.07.39.21.39.43v9.57h.68c.53,0,.76-.26.76-.95V.44c0-.28-.14-.42-.42-.42Z"/>
        <path class="cls-1" d="m46.91.02l-1.35-.02c-.08,0-.13.03-.15.11-.01.07.02.14.09.17.26.07.39.21.39.43v2.54h-1.37v.92h1.37v5.68h.68c.52,0,.76-.26.76-.94V.44c0-.28-.14-.42-.42-.42Z"/>
        <path class="cls-1" d="m35.08.3c.29.08.43.23.43.47v6.96h.74c.58,0,.82-.28.82-1.03V.48c0-.3-.15-.45-.46-.45l-1.47-.02c-.08,0-.14.03-.16.12-.01.08.02.16.1.18Z"/>
        <path class="cls-1" d="m31.87,8.98v-1.99c0-.3-.15-.45-.45-.45l-1.47-.03c-.09,0-.14.03-.16.13-.02.08.02.15.09.18.29.08.43.23.43.47v1.91c0,.63.36.99,1.01.99h6.02v-.91h-5.17c-.18,0-.31-.1-.31-.29Z"/>
        <path class="cls-1" d="m33.82,2.9c0-1.55-1.15-2.68-2.87-2.68s-2.87,1.18-2.87,2.68,1.02,2.68,2.87,2.68c1.6,0,2.87-1.05,2.87-2.68Zm-4.17,0c0-.99.48-1.77,1.3-1.77s1.31.75,1.31,1.77c0,1.07-.58,1.76-1.31,1.76-.84,0-1.3-.8-1.3-1.76Z"/>
      </g>
    </g>
  </g>
</svg>