<?xml version="1.0" encoding="UTF-8"?>
<svg id="_레이어_2" data-name="레이어 2" xmlns="http://www.w3.org/2000/svg" xmlns:xlink="http://www.w3.org/1999/xlink" viewBox="0 0 48.32 45.83">
  <defs>
    <style>
      .cls-1 {
        fill: url(#linear-gradient);
      }
    </style>
    <linearGradient id="linear-gradient" x1="24.16" y1="41.82" x2="24.16" y2="11.8" gradientUnits="userSpaceOnUse">
      <stop offset="0" stop-color="#009893"/>
      <stop offset="1" stop-color="#9fcf6d"/>
    </linearGradient>
  </defs>
  <g id="Layer_1" data-name="Layer 1">
    <path class="cls-1" d="m48.24,23.26c.84-9.17-5.45-19.38-9.62-19.38-2.62,0-4.5,5.83-8.58,5.83-1.96-4.68-4.4-9.71-6.88-9.71-3.62,0-6.3,10.38-10.02,10.38-4.01,0-3.9-7.7-7.75-3.42C-1.26,14.36-.68,23.81,1.44,29.97c2.25,6.53,9.4,15.86,23.11,15.86,11.19,0,18.58-7.96,21.12-13.08,0,0,0-.01-.01,0-4.43,4.87-11.94,9.4-20.78,9.4-4.14,0-10.63-1.21-11.9-5.97,0,0-4.92-2.19-6.29-4.73,0,0-.04-1.01.61-1.66.21.36,2.58,4.19,9.39,6.52,8.74,2.99,17.53.97,19.89-.52,0,0,0,0,0,0-3.68,1.23-15.57,1.61-21.08-1.64-1.72-1.02-2.12-2.32.89-2.6,1.8-.17,4.78.05,9.33.98,19.52,4.01,22.27-5.37,22.03-6.05-.25-.69-3.12-3.03-8.02-2.27-8.97,1.59-16.63,7.9-24.89,2.71-5.01-3.15-5.02-10.32-7.14-10.93,0,0,0,0,0,0,1.21-.66,2.38-2.48,4.23-2.48,1.14,0,1.72.38,3.06,1.92,2.85,3.26,6.12,6.12,11.44,6.77,4.41.48,8.93-1.74,4.34-10.7,0,0,0-.02,0,0,3.38,2.97,5.97,7.48,3.79,10.5,0,0,8.63-3.22,13.68,1.28Zm-5.11,4.48c.54.01.96.36.95.77-.02.41-.47.74-1.01.73-.54,0-.96-.36-.95-.77.01-.41.46-.74,1-.73ZM10.89,16.03c-.01.43.33.78.75.79.42,0,.78-.33.79-.75.01-.43-.32-.78-.75-.79-.43-.01-.78.33-.79.75Z"/>
  </g>
</svg>