<?xml version="1.0" encoding="UTF-8"?>
<svg id="_레이어_2" data-name="레이어 2" xmlns="http://www.w3.org/2000/svg" viewBox="0 0 54.62 11.35">
  <defs>
    <style>
      .cls-1 {
        fill: #009893;
      }
    </style>
  </defs>
  <g id="Layer_1" data-name="Layer 1">
    <g>
      <g>
        <path class="cls-1" d="m5.63,1.11c0-.14-.07-.22-.22-.22l-.73-.02c-.06,0-.09.02-.11.08,0,.05.01.09.06.11.18.05.24.17.24.32v7.07s.35,0,.35,0c.28,0,.4-.13.4-.49v-3.55h1.13v-.65h-1.13V1.11Z"/>
        <path class="cls-1" d="m2.46,1.1c0-.14-.07-.21-.21-.21l-.67-.02s-.08.02-.09.07c0,.04.01.09.05.1.16.04.17.12.17.28v.52H0v.64h4.18v-.64h-1.72v-.75Z"/>
        <path class="cls-1" d="m8.3,1.07c.18.04.24.17.24.32v1.12c0,.37.22.59.77.59h4.11v-.64h-4.11v-1.35c0-.14-.07-.22-.22-.22l-.74-.02c-.05,0-.09.02-.1.08-.01.05.01.1.06.11Z"/>
        <path class="cls-1" d="m2.07,2.86c-1.04,0-1.73.84-1.73,1.85s.71,1.85,1.73,1.85c.95,0,1.73-.75,1.73-1.85s-.77-1.85-1.73-1.85Zm0,3.05c-.58,0-.99-.54-.99-1.2s.39-1.2.99-1.2c.55,0,.99.48.99,1.2s-.44,1.2-.99,1.2Z"/>
        <rect class="cls-1" x="7.46" y="3.77" width="6.81" height=".64"/>
        <path class="cls-1" d="m24.16,6.09c0-.15-.07-.22-.22-.22h-.74c-.06,0-.09.01-.1.07-.01.05.01.09.06.11.18.05.24.17.24.32v1.23c0,.38.22.6.77.6h3.83v-.65h-3.84v-1.47Z"/>
        <path class="cls-1" d="m27.65.87h-.73c-.05,0-.09.01-.1.07-.01.05,0,.1.06.12.18.05.24.17.24.32v2.71c-.57.5-1.28.62-2.2.62h-1.49c-.16,0-.3-.06-.3-.25v-.91h2c.33,0,.53-.15.53-.46v-1.14c0-.37-.22-.6-.77-.59h-2.51v.64h2.54v.91h-2.65c-.06,0-.1.01-.11.07,0,.05.02.09.06.1.11.04.16.11.16.22v1.24c0,.54.46.79.97.79h1.51c1.17,0,1.8-.15,2.26-.57v1.66h.36c.28,0,.4-.13.4-.5V1.1c0-.15-.07-.22-.22-.22Z"/>
        <path class="cls-1" d="m9.3,6.87h4.05v-1.24c0-.37-.19-.6-.66-.6h-4.25v.64h4.16v.62h-4.18c-.06,0-.1,0-.11.07,0,.05.02.08.06.1.11.04.17.11.17.22v.93c0,.37.22.6.77.6h4.12v-.64h-4.13v-.69Z"/>
        <path class="cls-1" d="m20.57.89l-.72-.02c-.05,0-.09.02-.1.08,0,.05.01.09.06.11.18.05.24.17.24.32v2.17h-.8V1.11c0-.14-.07-.22-.22-.22l-.73-.02c-.05,0-.09.02-.1.08-.01.05.01.09.06.11.18.05.24.17.24.32v3.64c-.28.27-.82.47-1.42.47h-.89c-.2,0-.34-.07-.34-.33V1.55c0-.15-.08-.22-.22-.22h-.73c-.05-.01-.09.01-.1.06-.01.05,0,.1.06.12.18.05.24.17.24.32v3.49c0,.47.31.83.93.83h.82c.7,0,1.3-.17,1.66-.44v2.75h.35c.27,0,.39-.13.39-.49v-3.77h.8v4.25h.35c.28,0,.39-.13.39-.49V1.11c0-.14-.07-.22-.22-.22Z"/>
      </g>
      <g>
        <path class="cls-1" d="m49.15,1.34c0-.49-.25-.73-.75-.73h-3.97v1h2.57c.23,0,.34.13.34.36,0,1.56-.8,3.57-3.37,5.55l.51.86c.98-.56,2.05-1.48,2.8-2.35.5.63,1.4,1.68,2.29,2.28l.62-.78s-1.38-1.58-1.97-2.91c.52-.89.94-2.41.94-3.29Z"/>
        <path class="cls-1" d="m54.16.03l-1.49-.03c-.08,0-.15.04-.17.12-.02.08.02.16.1.18.29.08.44.24.44.47v10.56h.75c.58,0,.84-.29.84-1.04V.49c0-.31-.15-.46-.46-.46Z"/>
        <path class="cls-1" d="m51.78.03l-1.49-.03c-.08,0-.15.04-.17.12-.01.08.02.16.1.18.29.08.44.24.44.47v2.81h-1.51v1.01h1.51v6.27h.75c.58,0,.84-.29.84-1.04V.49c0-.31-.15-.46-.46-.46Z"/>
        <path class="cls-1" d="m38.71.34c.32.08.48.26.48.51v7.68h.81c.64,0,.91-.31.91-1.13V.53c0-.34-.17-.5-.5-.5l-1.62-.03c-.09,0-.16.04-.18.14-.02.08.02.17.11.2Z"/>
        <path class="cls-1" d="m35.18,9.92v-2.19c0-.34-.17-.5-.5-.5l-1.62-.03c-.1,0-.16.04-.18.14-.02.08.02.17.1.2.32.08.48.26.48.51v2.1c0,.7.4,1.09,1.12,1.09h6.64v-1h-5.7c-.2,0-.34-.12-.34-.32Z"/>
        <path class="cls-1" d="m37.33,3.21c0-1.71-1.27-2.96-3.17-2.96s-3.17,1.3-3.17,2.96,1.13,2.96,3.17,2.96c1.77,0,3.17-1.16,3.17-2.96Zm-4.61,0c0-1.09.53-1.95,1.44-1.95s1.44.82,1.44,1.95c0,1.18-.63,1.95-1.44,1.95-.92,0-1.44-.89-1.44-1.95Z"/>
      </g>
    </g>
  </g>
</svg>