<?xml version="1.0" encoding="utf-8"?>
<!-- Generator: Adobe Illustrator 22.0.1, SVG Export Plug-In . SVG Version: 6.00 Build 0)  -->
<svg version="1.1" id="레이어_1" xmlns="http://www.w3.org/2000/svg" xmlns:xlink="http://www.w3.org/1999/xlink" x="0px"
	 y="0px" viewBox="0 0 468.8 97.2" style="enable-background:new 0 0 468.8 97.2;" xml:space="preserve">
<style type="text/css">
	.st0{fill:#6FBA2C;}
	.st1{fill:#F39800;}
	.st2{fill:#0093D4;}
	.st3{fill:#B963A4;}
	.st4{fill:#EB6100;}
	.st5{fill:#AAA893;}
	.st6{enable-background:new    ;}
	.st7{fill:#004C98;}
</style>
<g>
	<path class="st0" d="M62.8,40.2c-8.8-8.3-21.7,3.4-14.3,14.4c3.8,5.6,13.5,9.3,27.4,8.5c2-0.1,2.6-0.5,0.7-1.4
		C64.4,56.1,69.3,46.3,62.8,40.2z"/>
	<path class="st1" d="M34.3,65.8c0.9-1.7,1.2-2.2-1.2-1.1C19.9,70.9,17.3,61,8.5,62.3C3.6,63-0.1,67.7,0.7,72.9
		c1,6.2,8.1,8.5,13.8,7.9C26.2,79.6,32.8,68.7,34.3,65.8z"/>
	<path class="st2" d="M24.2,61.6c0.5,0.4,1.1,1.2-0.6,0.9C2.4,59.3-1.5,46.8,4,40.7c2.9-3.3,9.2-3.7,12.1-0.4
		C21.8,46.5,15.8,54.5,24.2,61.6z"/>
	<path class="st1" d="M100.4,11.5c2.1,0.1,2.6,0.5,0.5,1.3c-5,2-10,5.7-10.2,14.1C90.5,39,73,35.8,75,23.1
		C77.2,8.9,98,11.4,100.4,11.5z"/>
	<path class="st3" d="M38.7,72.9c3.6,10.7,18.7,7,17.4-3.3c-1.1-8.9-11.7-6-11.7-15.8c0-1.2-0.1-2.2-1.3-0.3
		C39.8,58.5,36.9,67.6,38.7,72.9z"/>
	<path class="st0" d="M103.7,67.1c-9.3,6.6-12.7-1.4-19.4-1.7c-7.7-0.4-9.9,12.1,0,14.4c4.6,1.1,15.9-1.1,20.6-12.4
		C105.1,66.7,104.8,66,103.7,67.1z"/>
	<path class="st1" d="M101,58.9c2.1-10.5-6.7-20.4-7.5-21.4c-0.2-0.3-2-2.4-1.2,0.7c2.3,9.4-2.6,12.1-4,18.8
		C86.1,66.7,99.2,68,101,58.9z"/>
	<path class="st4" d="M47.3,37.4c-11.1,1.1-17.6,4.2-21.1,6.9c-5.1,4-4.5,10.4-1.5,13.4c3.2,3.2,9.4,4.3,13.4-0.7
		c4.8-6,0.1-13.2,9.6-18.7C49.2,37.6,48.3,37.3,47.3,37.4z"/>
	<path class="st0" d="M119.2,38.8c-2.1,0.9-3.7,2.6-4.9,4.5c-1.2,2-1.7,4.4-3,6.4c-1.1,1.7-2.5,3.4-4.1,4.6
		c-0.9,0.7-1.4,1.6,0.3,1.3c1.4-0.3,3.3-0.6,5.7-0.3c2.4,0.2,5.5,1.4,7,1.7c2.9,1,6.4,0.9,8.6-1.4c3.6-3.8,3.2-10.9-0.4-14.7
		C126.1,38.5,122.4,37.4,119.2,38.8z"/>
	<path class="st2" d="M127.8,60.7c-7.5-1.2-11.1,4.5-22.1-3.1c-1-0.7-1.8-1.2-1.1,1c1.2,3.6,6.4,18.1,16.6,20.7
		C136,83.1,140,62.9,127.8,60.7z"/>
	<path class="st2" d="M57.3,7.1c-1.6,8.2,4.8,12.2,3.2,24.3c-0.1,1,0.7,0.9,1,0.4c4.8-11.1,12.1-10.7,14.8-19.3
		C80.4-0.4,59.4-3.8,57.3,7.1z"/>
	<path class="st3" d="M25.7,38.8c9.8,0.8,10.3-6.5,27.8-5.5c1.4,0.1,1.2-0.9,0.3-1.1c-15.7-4.7-18.3-14.8-26.5-15.1
		C14.1,16.7,12.2,37.8,25.7,38.8z"/>
	<path class="st4" d="M37.7,18.4c6,7.7,10.7,2.6,17.6,10.1c1,1.1,1.8,0.6,1-0.7c-4.8-7.8,0.6-14.9-3.4-20
		C45.2-1.9,30.6,9.3,37.7,18.4z"/>
	<path class="st4" d="M94,26.4c0,8.2,9,12,9.6,27.3c0,1,1,1,1.2,0c3-15.3,11.3-18.2,12.1-27C118,13.3,94,10.8,94,26.4z"/>
	<path class="st3" d="M86,53.4c3.7-3.2,4.9-8.8,1.6-12.9c-6.1-7-12.6,0-18.8-11.7c-1-1.9-1.7-1.5-1.3,0.6c1.3,7.1-1.1,14.2,3.1,20.5
		C74.6,56.1,82,56.8,86,53.4z"/>
	<path class="st5" d="M67.1,66.6c-4.4,0-8,3.6-8,8.1v21.6h16.1V74.6C75.2,70.2,71.6,66.6,67.1,66.6z"/>
</g>
<g class="st6">
	<path class="st7" d="M182.8,87.4c-3.8,0-7.3-0.4-10.5-1.1c-3.2-0.8-6.1-1.9-8.5-3.5c-2.4-1.6-4.3-3.5-5.7-5.9
		c-1.4-2.4-2.1-5.2-2.1-8.4V29.1c0-3.2,0.7-6.1,2.1-8.4c1.4-2.4,3.3-4.3,5.7-5.9c2.4-1.6,5.2-2.7,8.5-3.5c3.2-0.8,6.7-1.1,10.5-1.1
		c4.6,0,8.6,0.4,11.9,1.3c3.3,0.9,6.1,2.3,8.3,4.2c2.2,1.9,3.9,4.3,5.1,7.3s2.1,6.5,2.5,10.5l-18.3,2.6c-0.6-3.3-1.6-5.8-2.8-7.4
		c-1.2-1.7-3.2-2.5-5.8-2.5c-2.3,0-4.3,0.6-6,1.7c-1.7,1.2-2.5,2.9-2.5,5.2v31.2c0,2.3,0.8,4.1,2.5,5.2c1.7,1.2,3.7,1.7,6,1.7
		c2.9,0,5-0.9,6.4-2.7c1.4-1.8,2.4-4.5,3.1-8l18.2,2.6c-0.5,4.2-1.4,7.9-2.6,10.9c-1.2,3-3,5.5-5.3,7.5c-2.3,2-5.1,3.4-8.5,4.4
		C191.7,86.9,187.6,87.4,182.8,87.4z"/>
	<path class="st7" d="M235,46.2v39.9h-18.2v-63L211,11.5h24l18.3,39.9V11.5h18.2v74.6h-18.2L235,46.2z"/>
</g>
<g class="st6">
	<path class="st7" d="M349.1,36c0,3.5-0.8,6.4-2.3,8.7c-1.5,2.3-3.7,4-6.7,5c3.2,1,5.7,2.7,7.3,5c1.7,2.3,2.5,5.3,2.5,8.7v7.4
		c0,5.4-1.4,9.6-4.1,12.3c-2.7,2.8-7.2,4.2-13.3,4.2h-27.5c-1.3,0-2.3-0.5-3.2-1.4l-4.9-5.1c-0.9-0.9-1.3-2-1.3-3.2V24.3L290,12.7
		h41.7c6.1,0,10.6,1.4,13.3,4.2s4.1,6.9,4.1,12.3V36z M314.9,41.7h10.8c2.9,0,4.3-1.4,4.3-4.3v-4.3c0-2.9-1.4-4.3-4.3-4.3h-10.8
		V41.7z M326.5,71.2c2.9,0,4.3-1.4,4.3-4.3v-4.8c0-2.9-1.4-4.3-4.3-4.3h-11.6v13.5H326.5z"/>
	<path class="st7" d="M411.3,69.2c0,3.2-0.7,6.1-2.1,8.4c-1.4,2.4-3.3,4.3-5.8,5.9c-2.5,1.6-5.4,2.7-8.7,3.5c-3.4,0.8-7,1.1-11,1.1
		c-4,0-7.7-0.4-11-1.1c-3.4-0.8-6.3-1.9-8.7-3.5c-2.5-1.6-4.4-3.5-5.8-5.9s-2.1-5.2-2.1-8.4V24.7l-5.7-12h24.9v52.4
		c0,2.4,0.8,4.1,2.5,5.3c1.7,1.2,3.7,1.7,6,1.7c2.3,0,4.3-0.6,6-1.7c1.7-1.2,2.5-2.9,2.5-5.3V12.7h19.1V69.2z"/>
	<path class="st7" d="M446.9,42.4c4.6,1.7,8.4,3.2,11.2,4.6c2.8,1.4,5,3,6.4,4.8c1.5,1.8,2.4,3.9,2.9,6.4c0.5,2.5,0.7,5.7,0.7,9.5
		c0,3.4-0.5,6.4-1.5,8.8c-1,2.5-2.6,4.5-4.7,6.1c-2.1,1.6-4.8,2.8-8.1,3.5c-3.3,0.8-7.2,1.1-11.8,1.1h-24.9V71.2H442
		c2.9,0,4.9-0.4,6.1-1.2c1.2-0.8,1.8-2,1.8-3.8c0-1-0.1-2-0.4-2.7c-0.3-0.8-0.8-1.5-1.7-2.3c-0.9-0.7-2.1-1.5-3.8-2.2
		c-1.7-0.8-3.9-1.7-6.6-2.7c-4.6-1.7-8.2-3.2-11-4.6c-2.8-1.4-4.9-3-6.3-4.7c-1.4-1.7-2.4-3.8-2.9-6.2c-0.5-2.4-0.7-5.4-0.7-9.1
		c0-6.7,2-11.6,6.1-14.6c4.1-3,10.6-4.5,19.6-4.5h20.7l3.9,16.1h-24.6c-2.8,0-4.7,0.3-5.8,1c-1.1,0.7-1.6,1.9-1.6,3.5
		c0,0.8,0.1,1.6,0.4,2.3c0.3,0.7,0.8,1.4,1.7,2.1c0.8,0.7,2.1,1.4,3.6,2.2C442.1,40.5,444.2,41.4,446.9,42.4z"/>
</g>
</svg>
